<svg width="458" height="458" viewBox="0 0 458 458" fill="none" xmlns="http://www.w3.org/2000/svg">
<path d="M229 0C103.05 0 0 103.05 0 229C0 354.95 103.05 458 229 458C354.95 458 458 354.95 458 229C458 103.05 354.95 0 229 0ZM229 68.7C267.93 68.7 297.7 98.47 297.7 137.4C297.7 176.33 267.93 206.1 229 206.1C190.07 206.1 160.3 176.33 160.3 137.4C160.3 98.47 190.07 68.7 229 68.7ZM229 393.88C171.75 393.88 121.37 364.111 91.6 320.6C91.6 274.8 183.2 249.61 229 249.61C274.8 249.61 366.4 274.8 366.4 320.6C336.63 364.11 286.25 393.88 229 393.88Z" fill="white"/>
<path d="M229 0C103.05 0 0 103.05 0 229C0 354.95 103.05 458 229 458C354.95 458 458 354.95 458 229C458 103.05 354.95 0 229 0ZM229 68.7C267.93 68.7 297.7 98.47 297.7 137.4C297.7 176.33 267.93 206.1 229 206.1C190.07 206.1 160.3 176.33 160.3 137.4C160.3 98.47 190.07 68.7 229 68.7ZM229 393.88C171.75 393.88 121.37 364.111 91.6 320.6C91.6 274.8 183.2 249.61 229 249.61C274.8 249.61 366.4 274.8 366.4 320.6C336.63 364.11 286.25 393.88 229 393.88Z" fill="url(#paint0_linear)"/>
<defs>
<linearGradient id="paint0_linear" x1="229" y1="0" x2="229" y2="458" gradientUnits="userSpaceOnUse">
<stop stop-color="#74A8FD"/>
<stop offset="1" stop-color="#76D6FC"/>
</linearGradient>
</defs>
</svg>
