<svg width="500" height="500" viewBox="0 0 500 500" fill="none" xmlns="http://www.w3.org/2000/svg">
<path d="M456.897 28.3879H43.1034C19.6379 28.3879 0 48.0259 0 71.4914V355.974C0 379.44 19.6379 399.078 43.1034 399.078H60.3448H112.069H129.31V471.612L200.371 393.44L243.466 343.345C246.569 339.741 252.009 339.328 255.629 342.431C259.233 345.534 259.647 350.983 256.543 354.586L218.276 399.078H456.897C480.362 399.078 500 379.44 500 355.974V71.4914C500 48.0259 480.362 28.3879 456.897 28.3879Z" fill="white"/>
<path d="M456.897 28.3879H43.1034C19.6379 28.3879 0 48.0259 0 71.4914V355.974C0 379.44 19.6379 399.078 43.1034 399.078H60.3448H112.069H129.31V471.612L200.371 393.44L243.466 343.345C246.569 339.741 252.009 339.328 255.629 342.431C259.233 345.534 259.647 350.983 256.543 354.586L218.276 399.078H456.897C480.362 399.078 500 379.44 500 355.974V71.4914C500 48.0259 480.362 28.3879 456.897 28.3879Z" fill="url(#paint0_linear)"/>
<path d="M224.138 157.698H94.8276C90.0603 157.698 86.2069 153.836 86.2069 149.078C86.2069 144.319 90.0603 140.457 94.8276 140.457H224.138C228.905 140.457 232.759 144.319 232.759 149.078C232.759 153.836 228.905 157.698 224.138 157.698Z" fill="white"/>
<path d="M387.931 226.664H94.8276C90.0603 226.664 86.2069 222.802 86.2069 218.043C86.2069 213.284 90.0603 209.422 94.8276 209.422H387.931C392.698 209.422 396.552 213.284 396.552 218.043C396.552 222.802 392.698 226.664 387.931 226.664Z" fill="white"/>
<path d="M387.931 295.629H94.8276C90.0603 295.629 86.2069 291.767 86.2069 287.009C86.2069 282.25 90.0603 278.388 94.8276 278.388H387.931C392.698 278.388 396.552 282.25 396.552 287.009C396.552 291.767 392.698 295.629 387.931 295.629Z" fill="white"/>
<defs>
<linearGradient id="paint0_linear" x1="250" y1="28.3879" x2="250" y2="471.612" gradientUnits="userSpaceOnUse">
<stop stop-color="#74A8FD"/>
<stop offset="1" stop-color="#76D6FC"/>
</linearGradient>
</defs>
</svg>
