<svg width="488" height="488" viewBox="0 0 488 488" fill="none" xmlns="http://www.w3.org/2000/svg">
<path d="M480.796 151.743C478.794 150.643 431.966 126.328 353.918 111.619L350.916 98.8107C343.111 65.2901 313.593 41.7757 279.072 41.7757H208.928C174.507 41.7757 144.989 65.1901 137.084 98.8107L134.082 111.619C56.0344 126.228 9.20566 150.643 7.20443 151.743C2.80172 154.045 0 158.648 0 163.651V322.748C0 386.488 51.8319 438.419 115.671 438.419C123.176 438.419 129.179 432.416 129.179 424.911C129.179 417.407 123.176 411.403 115.671 411.403C66.8411 411.403 27.0166 371.678 27.0166 322.748V172.156C43.2266 164.751 86.0529 147.241 147.591 136.634C152.894 135.733 157.197 131.631 158.397 126.428L163.4 104.914C168.404 83.7014 187.015 68.7923 208.928 68.7923H279.072C300.885 68.7923 319.596 83.6014 324.6 104.914L329.603 126.428C330.803 131.731 335.106 135.733 340.409 136.634C401.747 147.241 444.673 164.751 460.983 172.156V322.748C460.983 371.578 421.259 411.403 372.329 411.403C364.824 411.403 358.821 417.407 358.821 424.911C358.821 432.416 364.824 438.419 372.329 438.419C436.068 438.419 488 386.588 488 322.748V163.651C488 158.648 485.298 154.045 480.796 151.743Z" fill="white"/>
<path d="M44.2272 124.126C45.628 124.126 47.0289 123.926 48.4298 123.426C62.6385 118.723 77.5477 114.52 92.757 110.918C100.062 109.217 104.464 101.913 102.763 94.7082C101.062 87.4037 93.7576 83.001 86.5532 84.7021C70.6434 88.5044 54.9338 92.9071 39.9245 97.8101C32.8202 100.112 29.0178 107.816 31.3192 114.821C33.3205 120.524 38.6237 124.126 44.2272 124.126Z" fill="white"/>
<path d="M244.05 135.133C158.297 135.133 88.5544 204.876 88.5544 290.629C88.5544 376.381 158.297 446.224 244.05 446.224C329.803 446.224 399.546 376.481 399.546 290.729C399.546 204.976 329.803 135.133 244.05 135.133ZM244.05 419.208C173.206 419.208 115.571 361.572 115.571 290.729C115.571 219.885 173.206 162.15 244.05 162.15C314.894 162.15 372.529 219.785 372.529 290.629C372.529 361.472 314.894 419.208 244.05 419.208Z" fill="white"/>
</svg>
