<svg width="500" height="500" viewBox="0 0 500 500" fill="none" xmlns="http://www.w3.org/2000/svg">
<rect width="500" height="500" fill="white"/>
<path d="M499.172 156.182C491.874 75.8505 435.015 17.5683 363.857 17.5683C316.45 17.5683 273.044 43.0794 248.62 83.9663C224.416 42.5505 182.789 17.5587 136.142 17.5587C64.9936 17.5587 8.12493 75.8409 0.83605 156.172C0.259094 159.721 -2.10643 178.395 5.0863 208.849C15.4523 252.774 39.396 292.728 74.3114 324.365L248.504 482.441L425.687 324.374C460.603 292.728 484.547 252.784 494.913 208.849C502.105 178.404 499.74 159.73 499.172 156.182Z" fill="white"/>
<path d="M499.172 156.182C491.874 75.8505 435.015 17.5683 363.857 17.5683C316.45 17.5683 273.044 43.0794 248.62 83.9663C224.416 42.5505 182.789 17.5587 136.142 17.5587C64.9936 17.5587 8.12493 75.8409 0.83605 156.172C0.259094 159.721 -2.10643 178.395 5.0863 208.849C15.4523 252.774 39.396 292.728 74.3114 324.365L248.504 482.441L425.687 324.374C460.603 292.728 484.547 252.784 494.913 208.849C502.105 178.404 499.74 159.73 499.172 156.182Z" fill="url(#paint0_linear)"/>
<defs>
<linearGradient id="paint0_linear" x1="250" y1="17.5587" x2="250" y2="482.441" gradientUnits="userSpaceOnUse">
<stop stop-color="#74A8FD"/>
<stop offset="1" stop-color="#76D6FC"/>
</linearGradient>
</defs>
</svg>
